<svg width="25" height="24" viewBox="0 0 25 24" fill="none" xmlns="http://www.w3.org/2000/svg">
<path fill-rule="evenodd" clip-rule="evenodd" d="M16.6237 13.7866C16.3997 13.6751 15.2988 13.1359 15.0935 13.0615C14.8882 12.9872 14.7389 12.95 14.5896 13.173C14.4403 13.3961 14.0112 13.8982 13.8805 14.0469C13.7499 14.1956 13.6193 14.2143 13.3954 14.1027C13.1714 13.9911 12.4499 13.7558 11.5945 12.9965C10.9288 12.4055 10.4793 11.6758 10.3487 11.4526C10.2181 11.2295 10.3348 11.1089 10.4469 10.9978C10.5477 10.8979 10.6709 10.7374 10.7828 10.6073C10.8948 10.4772 10.9321 10.3842 11.0068 10.2355C11.0814 10.0868 11.0441 9.95661 10.9881 9.84507C10.9321 9.73353 10.4842 8.63649 10.2976 8.1902C10.1159 7.75572 9.93125 7.81457 9.79378 7.80764C9.66331 7.80118 9.51385 7.79981 9.3646 7.79981C9.21531 7.79981 8.97269 7.85558 8.76744 8.07866C8.56216 8.30183 7.98365 8.841 7.98365 9.93796C7.98365 11.035 8.78609 12.0947 8.89808 12.2434C9.01003 12.3922 10.4771 14.6433 12.7236 15.6087C13.2579 15.8383 13.675 15.9754 14.0002 16.0781C14.5367 16.2478 15.0249 16.2238 15.4107 16.1664C15.8409 16.1025 16.7356 15.6273 16.9222 15.1067C17.1088 14.5861 17.1088 14.1399 17.0528 14.0469C16.9969 13.954 16.8476 13.8982 16.6237 13.7866ZM12.5376 19.3389H12.5346C11.198 19.3384 9.88695 18.981 8.74321 18.3056L8.47123 18.1449L5.65186 18.8809L6.40437 16.1452L6.22728 15.8648C5.4816 14.6844 5.08779 13.3202 5.08835 11.9194C5.08998 7.83189 8.43169 4.50642 12.5406 4.50642C14.5303 4.5071 16.4006 5.27928 17.8071 6.68057C19.2135 8.08183 19.9875 9.9445 19.9868 11.9253C19.9851 16.0132 16.6434 19.3389 12.5376 19.3389ZM18.8775 5.61578C17.1854 3.92982 14.9351 3.00094 12.5376 3C7.59762 3 3.57709 7.00099 3.57512 11.9188C3.57447 13.4909 3.98715 15.0253 4.77146 16.378L3.5 21L8.25107 19.7596C9.56013 20.4702 11.034 20.8448 12.534 20.8453H12.5376C17.4771 20.8453 21.498 16.8439 21.5 11.9259C21.5009 9.5427 20.5695 7.3017 18.8775 5.61578Z" fill="#6B94C5"/>
</svg>
